<svg xmlns="http://www.w3.org/2000/svg" width="18.392" height="18.393" viewBox="0 0 18.392 18.393">
  <path id="request" d="M17.719.676A2.273,2.273,0,0,0,15.573.063L3.311,2.646a3.828,3.828,0,0,0-2.187,6.5l1.317,1.316A.766.766,0,0,1,2.665,11v2.428a2.272,2.272,0,0,0,.23.985l-.006.005.02.02a2.3,2.3,0,0,0,1.044,1.039l.02.02.005-.006a2.272,2.272,0,0,0,.985.23H7.391a.766.766,0,0,1,.542.224l1.316,1.316a3.8,3.8,0,0,0,2.7,1.129,3.87,3.87,0,0,0,1.23-.2,3.781,3.781,0,0,0,2.563-3.055L18.326,2.847A2.28,2.28,0,0,0,17.719.676ZM3.526,9.379,2.209,8.064a2.253,2.253,0,0,1-.553-2.356A2.282,2.282,0,0,1,3.571,4.155L15.712,1.6,4.2,13.116V11A2.282,2.282,0,0,0,3.526,9.379Zm10.708,5.5a2.3,2.3,0,0,1-3.9,1.312L9.015,14.869A2.282,2.282,0,0,0,7.391,14.2H5.28L16.8,2.683Z" transform="translate(-0.003 -0.001)" fill="#fff"/>
</svg>
