<svg xmlns="http://www.w3.org/2000/svg" width="30.815" height="34.121" viewBox="0 0 30.815 34.121">
  <g id="icon_sales" transform="translate(-78.629 -44.18)">
    <path id="Tracé_889" data-name="Tracé 889" d="M166.389,300.7H138.459a.608.608,0,0,1-.606-.563l-.835-11.472a.607.607,0,0,1,.373-.605l9.85-4.09a.608.608,0,0,1,.827.434l2,9.288L151.1,289l-1.274-3.421a.607.607,0,0,1,.569-.819h4.06a.607.607,0,0,1,.569.819L153.748,289l1.032,4.692,2-9.288a.608.608,0,0,1,.827-.433l9.85,4.09a.607.607,0,0,1,.373.605l-.835,11.472a.606.606,0,0,1-.6.563Zm-27.366-1.215h26.8l.762-10.471-8.772-3.642-2.434,11.306a.608.608,0,0,1-.593.48h0a.608.608,0,0,1-.593-.477l-1.67-7.595a.606.606,0,0,1,.024-.343l1.031-2.769h-2.311l1.031,2.769a.609.609,0,0,1,.024.343l-1.67,7.595a.608.608,0,0,1-.593.477h0a.607.607,0,0,1-.593-.48l-2.434-11.306-8.772,3.642Z" transform="translate(-58.387 -222.397)" fill="#fff"/>
    <path id="Tracé_890" data-name="Tracé 890" d="M259.157,60.208c-4.144,0-7.357-4.661-7.357-8.67a7.357,7.357,0,0,1,14.715,0C266.515,55.547,263.3,60.208,259.157,60.208Zm0-14.812a6.149,6.149,0,0,0-6.142,6.142c0,3.377,2.739,7.455,6.142,7.455s6.142-4.078,6.142-7.455A6.148,6.148,0,0,0,259.157,45.4Z" transform="translate(-164.867)" fill="#fff"/>
    <path id="Tracé_891" data-name="Tracé 891" d="M441.207,441.278h-4.148a.608.608,0,0,1,0-1.215h4.148a.608.608,0,0,1,0,1.215Z" transform="translate(-336.16 -367.243)" fill="#fff"/>
    <path id="Tracé_892" data-name="Tracé 892" d="M268.537,91.946a13.176,13.176,0,0,1-3.53-.5c-2.494-.694-3.738.19-3.79.228a.612.612,0,0,1-.848-.122.6.6,0,0,1,.111-.844c.069-.054,1.733-1.3,4.853-.433a10.123,10.123,0,0,0,7.044-.362.608.608,0,1,1,.523,1.1,10.116,10.116,0,0,1-4.364.934Z" transform="translate(-172.702 -42.372)" fill="#fff"/>
  </g>
</svg>
