<svg xmlns="http://www.w3.org/2000/svg" width="37.346" height="37.754" viewBox="0 0 37.346 37.754">
  <g id="icon_investor" transform="translate(-79.653 -369.115)">
    <path id="Tracé_888" data-name="Tracé 888" d="M118.39,70.1a.747.747,0,0,1,0-1.493H126.2a.747.747,0,0,1,.747.747V70.2c1.135,0,2.4-.061,3.524.012a10.864,10.864,0,0,1-.235-4.292,11.734,11.734,0,0,1,3.174-5.85,18.216,18.216,0,0,0,3.653-5.613.744.744,0,0,1,1.359.607,19.5,19.5,0,0,1-3.916,6.009,10.337,10.337,0,0,0-2.8,5.1c-.314,1.779.165,2.776.353,4.321a13.161,13.161,0,0,1,3.953,1.846h5.33a2.712,2.712,0,0,1,2.788,1.966c1.35-.624,3.505-1.617,5.262-2.416a9.319,9.319,0,0,0,.17-4.529,10.785,10.785,0,0,0-1.91-4.744c-.4-.524-.788-.943-1.184-1.372a19.348,19.348,0,0,1-4-6.184.744.744,0,0,1,1.359-.607,18.041,18.041,0,0,0,3.732,5.782c.434.471.859.929,1.276,1.477a12.279,12.279,0,0,1,2.2,5.41,13.181,13.181,0,0,1,.072,4c3.7-1.643,5.365,2.468,2.308,4.232-4.309,2.488-8.873,4.628-13.186,7.1-2.419,1.386-8.194-1.038-10.623-2.1h-2.657v.817a.748.748,0,0,1-.747.747h-6.377a.747.747,0,0,1,0-1.493h5.63V70.1h-7.059Zm18.731-3.532,1.475-.147a1.508,1.508,0,0,0,1.63,1.432c.637,0,1.467-.258,1.467-1.03,0-.8-1.295-.951-1.9-1.1-1.2-.3-2.387-.824-2.387-2.255,0-1.278,1.009-1.9,2.124-2.054v-.84H140.8v.843a2.242,2.242,0,0,1,2.188,2.246l-1.517.053c-.134-.809-.566-1.088-1.363-1.088-.461,0-1.262.138-1.262.739,0,.647,1.142.847,1.611.959,1.454.342,2.751.774,2.751,2.493,0,1.484-1.142,2.134-2.407,2.281v.79h-1.274v-.8a2.588,2.588,0,0,1-2.406-2.519ZM138.6,50.351a.745.745,0,0,1-1.342.647,10.186,10.186,0,0,0-2.286-3.463c-.89-.932-.269-1.921.762-2.27a2.489,2.489,0,0,1,2.205.221c.642.581.886,1.574,1.362.606a1.351,1.351,0,0,1,2.5-.031c.593,1.07.6.12,1.369-.574a2.491,2.491,0,0,1,2.205-.221c1.031.35,1.652,1.338.762,2.27A10.2,10.2,0,0,0,143.85,51a.745.745,0,0,1-1.342-.647c1.232-2.541,1.53-2.835,2.173-3.465.438-.429-.375-.553-.881.145-.9,1.24-2.613,1.629-3.232-.081-.573,1.734-2.337,1.187-3.247.061-.621-.77-1.26-.484-.892-.124.643.63.942.923,2.173,3.465Zm-2.17,3.013a.747.747,0,0,1,0-1.493h8.246a.747.747,0,0,1,0,1.493ZM130.1,71.691h-3.155v7.167l2.809,0a.741.741,0,0,1,.3.065c1.942.87,7.509,3.334,9.417,2.241,4.318-2.475,8.885-4.616,13.195-7.1,1.523-.879.593-2.238-.925-1.568-2.251.995-7.877,3.578-8.267,3.758a3.306,3.306,0,0,1-2.248.716h-5.855c-.847,0-.847.462-.847.463a.747.747,0,0,1-1.493,0,2.056,2.056,0,0,1,2.34-1.957h5.855c2.175,0,1.659-1.639.11-1.639l-5.551,0a.742.742,0,0,1-.423-.132,10.723,10.723,0,0,0-5.266-2.01Zm-8.435,4.148h1.951a.746.746,0,0,1,.746.746v1.676a.746.746,0,0,1-.746.746h-1.951a.746.746,0,0,1-.747-.746V76.585A.746.746,0,0,1,121.663,75.839Z" transform="translate(-38 324.001)" fill="#fff"/>
  </g>
</svg>
