<svg xmlns="http://www.w3.org/2000/svg" width="27.209" height="27.768" viewBox="0 0 27.209 27.768">
  <g id="Picto_press" transform="translate(-156.152 -82.175)">
    <path id="Tracé_882" data-name="Tracé 882" d="M215.691,109.943H195.9a.756.756,0,1,1,0-1.512,1.979,1.979,0,0,0,1.988-1.98V82.931a.756.756,0,0,1,.756-.756h20.218a.756.756,0,0,1,.756.756v23.1a3.923,3.923,0,0,1-3.922,3.915Zm-16.91-1.512h16.91a2.409,2.409,0,0,0,2.411-2.4V83.687H199.395v22.764a3.469,3.469,0,0,1-.614,1.98Z" transform="translate(-36.252)" fill="#fff"/>
    <path id="Tracé_883" data-name="Tracé 883" d="M159.644,276.363a3.5,3.5,0,0,1-3.492-3.492V261.912a.756.756,0,0,1,.756-.756h5.48a.756.756,0,0,1,.756.756v10.959a3.491,3.491,0,0,1-3.5,3.492Zm-1.98-13.7v10.2a1.984,1.984,0,0,0,3.968,0v-10.2Z" transform="translate(0 -166.42)" fill="#fff"/>
    <path id="Tracé_884" data-name="Tracé 884" d="M284.888,139.476h-5.48a.756.756,0,0,1-.756-.756v-6.046a.756.756,0,0,1,.756-.756h5.48a.756.756,0,0,1,.756.756v6.046A.756.756,0,0,1,284.888,139.476Zm-4.724-1.512h3.968v-4.535h-3.968Z" transform="translate(-113.903 -46.252)" fill="#fff"/>
    <path id="Tracé_885" data-name="Tracé 885" d="M399.5,176.512h-5.669a.756.756,0,0,1,0-1.512H399.5a.756.756,0,1,1,0,1.512Z" transform="translate(-220.3 -86.31)" fill="#fff"/>
    <path id="Tracé_886" data-name="Tracé 886" d="M293.105,278.812h-13.7a.756.756,0,1,1,0-1.512h13.7a.756.756,0,1,1,0,1.512Z" transform="translate(-113.901 -181.431)" fill="#fff"/>
    <path id="Tracé_887" data-name="Tracé 887" d="M293.105,381.122h-13.7a.756.756,0,1,1,0-1.512h13.7a.756.756,0,1,1,0,1.512Z" transform="translate(-113.901 -276.56)" fill="#fff"/>
  </g>
</svg>
