<svg xmlns="http://www.w3.org/2000/svg" width="46.438" height="46.026" viewBox="0 0 46.438 46.026">
  <g id="picto_iot" transform="translate(-176.04 -107.414)">
    <path id="Tracé_853" data-name="Tracé 853" d="M373.04,110.287l2.873-2.873,1.642,1.642-2.873,2.873Z" transform="translate(-170.864 0)" fill="#398a98"/>
    <path id="Tracé_854" data-name="Tracé 854" d="M407.66,138.819l1.149-1.149,1.642,1.642-1.149,1.149Z" transform="translate(-200.891 -26.242)" fill="#398a98"/>
    <path id="Tracé_855" data-name="Tracé 855" d="M176.04,227.487l1.642-1.642,2.873,2.873-1.642,1.642Z" transform="translate(0 -102.719)" fill="#398a98"/>
    <path id="Tracé_856" data-name="Tracé 856" d="M206.29,205.857l1.642-1.642,1.149,1.149-1.642,1.642Z" transform="translate(-26.237 -83.959)" fill="#398a98"/>
    <path id="Tracé_857" data-name="Tracé 857" d="M492.04,305.317l1.642-1.642,2.873,2.873-1.642,1.642Z" transform="translate(-274.077 -170.223)" fill="#398a98"/>
    <path id="Tracé_858" data-name="Tracé 858" d="M474.16,340.567l1.642-1.642,1.149,1.149-1.642,1.642Z" transform="translate(-258.569 -200.797)" fill="#398a98"/>
    <path id="Tracé_859" data-name="Tracé 859" d="M240.445,156.931l2.09,2.09,1.625-1.625-2.786-2.786h-6.036V143.7l.929-.929-1.625-1.625-1.625,1.625v2.554h-2.322v-2.786l2.09-2.09-1.625-1.625-2.786,2.786v3.715h-2.322v-5.108l2.09-2.09-1.625-1.625-2.786,2.786v6.036H212.817l-.929-.929-1.625,1.625,1.625,1.625h2.554v2.322h-2.786l-2.09-2.09-1.625,1.625,2.786,2.786h3.715v2.322h-5.108l-2.09-2.09-1.625,1.625,2.786,2.786h6.036v10.564l-.929.929,1.625,1.625,1.625-1.625v-2.206h2.322v2.438l-2.09,2.09,1.625,1.625,2.786-2.786v-3.366h2.322v4.759l-2.09,2.09,1.625,1.625,2.786-2.786v-5.688h10.912l.929.929,1.625-1.625-1.625-1.625h-2.554v-2.322h2.786l2.09,2.09,1.625-1.625-2.786-2.786h-3.715v-2.322Zm-7.313,7.081H216.88V147.76h16.252Z" transform="translate(-25.656 -25.227)" fill="#398a98"/>
    <path id="Tracé_860" data-name="Tracé 860" d="M295.72,423.177l2.873-2.873,1.642,1.642-2.873,2.873Z" transform="translate(-103.802 -271.379)" fill="#398a98"/>
    <path id="Tracé_861" data-name="Tracé 861" d="M274.09,404.2l1.149-1.149,1.642,1.642-1.149,1.149Z" transform="translate(-85.042 -256.414)" fill="#398a98"/>
    <path id="Tracé_862" data-name="Tracé 862" d="M442.733,210.845a3.483,3.483,0,1,1,3.483-3.483A3.492,3.492,0,0,1,442.733,210.845Zm0-4.643a1.161,1.161,0,1,0,1.161,1.161A1.163,1.163,0,0,0,442.733,206.2Z" transform="translate(-228.29 -83.668)" fill="#398a98"/>
    <path id="Tracé_863" data-name="Tracé 863" d="M372.733,377.085a3.483,3.483,0,1,1,3.483-3.483A3.492,3.492,0,0,1,372.733,377.085Zm0-4.643a1.161,1.161,0,1,0,1.161,1.161A1.163,1.163,0,0,0,372.733,372.442Z" transform="translate(-167.577 -227.853)" fill="#398a98"/>
    <path id="Tracé_864" data-name="Tracé 864" d="M276.483,149.585a3.483,3.483,0,1,1,3.483-3.483A3.492,3.492,0,0,1,276.483,149.585Zm0-4.643a1.161,1.161,0,1,0,1.161,1.161A1.163,1.163,0,0,0,276.483,144.942Z" transform="translate(-84.096 -30.535)" fill="#398a98"/>
    <path id="Tracé_865" data-name="Tracé 865" d="M215.233,315.845a3.483,3.483,0,1,1,3.483-3.483A3.492,3.492,0,0,1,215.233,315.845Zm0-4.643a1.161,1.161,0,1,0,1.161,1.161A1.163,1.163,0,0,0,215.233,311.2Z" transform="translate(-30.972 -174.738)" fill="#398a98"/>
  </g>
</svg>
