<svg xmlns="http://www.w3.org/2000/svg" xmlns:xlink="http://www.w3.org/1999/xlink" width="56" height="56" viewBox="0 0 56 56">
  <defs>
    <clipPath id="clip-path">
      <circle id="Ellipse_71" data-name="Ellipse 71" cx="28" cy="28" r="28" transform="translate(1301 1881)" fill="#7e84a3" stroke="#707070" stroke-width="1"/>
    </clipPath>
  </defs>
  <g id="picto_data_science" transform="translate(-1301 -1881)" clip-path="url(#clip-path)">
    <g id="noun-data-science-3239702" transform="translate(1300.844 1885.58)">
      <path id="Tracé_879" data-name="Tracé 879" d="M37.425,5.051H19.847a3.411,3.411,0,0,0-3.4,3.411v.85c-3.956.142-9.156,1.8-9.156,5.752V32.015c0,2.978,3.973,5.329,9.156,5.514v.858a3.406,3.406,0,0,0,3.4,3.4H37.425a3.411,3.411,0,0,0,3.411-3.4V35.735c1.6-.432,2.79-2.41,3.541-5.034,2.207.543,5.408.882,6.538-1.076.968-1.677-.186-3.979-2.334-6.2,2.149-2.225,3.3-4.526,2.334-6.2-1.132-1.96-4.332-1.618-6.538-1.075-.751-2.623-1.942-4.6-3.541-5.034V8.462a3.415,3.415,0,0,0-3.411-3.411ZM49.769,17.882c.528.915-.264,2.671-2.135,4.623a26.5,26.5,0,0,0-2.456-1.971,26.571,26.571,0,0,0-.478-3.107c1.486-.364,4.347-.8,5.07.456ZM45.3,22.263c.5.388.967.775,1.392,1.16-.424.385-.891.772-1.392,1.16C45.326,23.812,45.328,23.076,45.3,22.263Zm-.12,4.049a26.5,26.5,0,0,0,2.456-1.971c1.872,1.952,2.664,3.707,2.135,4.623-.726,1.257-3.571.822-5.07.456a26.485,26.485,0,0,0,.478-3.107ZM17.105,11.061c4.745,0,8.053,1.982,8.054,3.762v0c0,1.779-3.31,3.759-8.053,3.759S9.051,16.6,9.051,14.824s3.308-3.763,8.054-3.763Zm0,13.257c-4.71,0-8-1.952-8.049-3.72V18.025a13.153,13.153,0,0,0,8.049,2.329,13.149,13.149,0,0,0,8.053-2.332V20.56c0,1.778-3.311,3.758-8.053,3.758Zm8.053-.565v2.537c0,1.779-3.31,3.759-8.053,3.759-4.71,0-8-1.952-8.049-3.721V23.757a13.153,13.153,0,0,0,8.049,2.329,13.149,13.149,0,0,0,8.053-2.332ZM17.1,35.779c-4.74,0-8.042-1.984-8.042-3.765V29.488a13.153,13.153,0,0,0,8.049,2.329,13.149,13.149,0,0,0,8.053-2.332v2.53C25.158,33.8,21.848,35.779,17.1,35.779ZM39.51,38.387a2.084,2.084,0,0,1-2.086,2.077H19.846a2.079,2.079,0,0,1-2.076-2.077v-.858c5.184-.189,9.156-2.539,9.156-5.514V14.829s0,0,0,0c0-2.974-3.972-5.324-9.156-5.512v-.85a2.084,2.084,0,0,1,2.076-2.086H37.424A2.088,2.088,0,0,1,39.51,8.462v2.646c-1.6.43-2.794,2.41-3.546,5.035a13.065,13.065,0,0,0-3.047-.425c-2.169,0-3.1.816-3.491,1.5-.746,1.293-.23,3.144,1.453,5.216.268.329.568.659.883.988-.315.329-.616.658-.883.988-1.683,2.072-2.2,3.923-1.453,5.216,1.131,1.959,4.33,1.619,6.538,1.076.752,2.626,1.944,4.606,3.546,5.035Zm-2.6-20.6q.833.268,1.7.625c-.674.356-1.159.619-2.012,1.154.085-.625.187-1.221.307-1.779Zm-1.866,6.8c-.491-.38-.954-.766-1.384-1.157.43-.391.894-.777,1.384-1.157C35.017,23.032,35.015,23.765,35.046,24.579Zm.121,1.738a26.563,26.563,0,0,0,.477,3.1c-1.485.364-4.347.8-5.069-.456S31.7,25.4,32.711,24.347a25.664,25.664,0,0,0,2.455,1.969Zm0-5.789a25.658,25.658,0,0,0-2.456,1.97c-.287-.3-.56-.6-.8-.9-1.274-1.567-1.772-2.957-1.333-3.717.312-.54,1.144-.838,2.343-.838a11.75,11.75,0,0,1,2.726.382,26.55,26.55,0,0,0-.478,3.1ZM36.6,27.282c.836.524,1.318.787,2.012,1.154q-.87.356-1.7.624c-.121-.558-.223-1.153-.307-1.779ZM40.171,34.5c-1.057,0-2.181-1.563-2.935-4.16a25.84,25.84,0,0,0,2.935-1.136,25.829,25.829,0,0,0,2.935,1.136C42.352,32.94,41.228,34.5,40.171,34.5Zm3.259-5.443q-.833-.268-1.7-.624c.679-.359,1.17-.626,2.012-1.155-.085.625-.187,1.221-.307,1.78Zm.484-3.477a28.444,28.444,0,0,1-3.743,2.154,28.592,28.592,0,0,1-3.743-2.153,29.608,29.608,0,0,1,0-4.324,28.607,28.607,0,0,1,3.743-2.153,28.4,28.4,0,0,1,3.743,2.154,29.636,29.636,0,0,1,0,4.322Zm-.176-6.02c-.813-.512-1.292-.775-2.012-1.155q.87-.356,1.7-.624c.121.558.223,1.154.307,1.78ZM43.106,16.5a25.811,25.811,0,0,0-2.935,1.136A25.81,25.81,0,0,0,37.236,16.5c.754-2.6,1.878-4.158,2.934-4.16h0c1.056,0,2.178,1.566,2.932,4.159Z" fill="#398a98" stroke="#398a98" stroke-width="0.5"/>
    </g>
  </g>
</svg>
