<svg xmlns="http://www.w3.org/2000/svg" width="19.827" height="14.995" viewBox="0 0 19.827 14.995">
  <path id="icon_dowload_pdf" d="M980.143,1661.786v-3.164a.692.692,0,0,1,.749-.618.725.725,0,0,1,.771.539l.007.079v3.164h4.738c2.393.031,4.333,1.552,4.411,3.456v4.147c.029,1.9-1.814,3.486-4.2,3.611H975.394c-2.392-.029-4.332-1.552-4.4-3.456v-4.14c-.029-1.9,1.808-3.482,4.185-3.611l.206,0h4.758v5.051l-1.586-1.305a.889.889,0,0,0-1.058-.018l-.022.018a.559.559,0,0,0-.079.81l.079.079,2.885,2.379a.881.881,0,0,0,1.006.056l.074-.056,2.885-2.379a.554.554,0,0,0,0-.889.9.9,0,0,0-.991-.061l-.085.061-1.576,1.3v-5.051Z" transform="translate(-970.993 -1658.005)" fill="#c0bdcc"/>
</svg>
