<svg xmlns="http://www.w3.org/2000/svg" width="19.812" height="12" viewBox="0 0 19.812 12">
  <path id="icon_view_not_active" d="M1324.887,1672a11.247,11.247,0,0,1-9.84-5.789.423.423,0,0,1,0-.428,11.244,11.244,0,0,1,9.84-5.782h.01a11.19,11.19,0,0,1,5.684,1.535,11.49,11.49,0,0,1,4.161,4.248.424.424,0,0,1,0,.428A11.246,11.246,0,0,1,1324.9,1672Zm-3.854-6c-.011,1.615,1.709,2.932,3.843,2.941s3.873-1.294,3.885-2.909-1.709-2.932-3.843-2.941h-.021C1322.769,1663.087,1321.039,1664.389,1321.033,1666Zm1.448,0a1.434,1.434,0,0,1,.049-.356h.048a1.818,1.818,0,0,0,1.982-1.441,2.6,2.6,0,0,1,.337-.022c1.324.008,2.388.827,2.378,1.828a2.494,2.494,0,0,1-4.794-.009Z" transform="translate(-1314.989 -1660)" fill="#c0bdcc"/>
</svg>
