<svg xmlns="http://www.w3.org/2000/svg" width="16.97" height="20" viewBox="0 0 29.24 31.199">
  <path id="icon_upload" d="M1075.512,450.2a6.647,6.647,0,0,1-6.506-6.479v-7.773a6.66,6.66,0,0,1,6.185-6.756h7.309v9.159a1.124,1.124,0,0,0,2.241.161l.01-.161V429.19h6.989a6.647,6.647,0,0,1,6.506,6.465v7.759a6.665,6.665,0,0,1-6.186,6.776h-.305Zm6.99-21.019v-6.216l-2.326,2.4a1.109,1.109,0,0,1-1.594,0,1.169,1.169,0,0,1-.125-1.5l.11-.135,4.255-4.384a1.1,1.1,0,0,1,.8-.345,1.084,1.084,0,0,1,.658.224l.132.123,4.256,4.384a1.18,1.18,0,0,1-.027,1.637,1.105,1.105,0,0,1-1.435.112l-.124-.112-2.325-2.4v6.214Z" transform="translate(-1069.006 -418.999)" fill="#7a86a1"/>
</svg>
