<svg xmlns="http://www.w3.org/2000/svg" width="37.946" height="37.609" viewBox="0 0 37.946 37.609">
  <g id="picto_wb_is_different" transform="translate(-176.04 -107.414)">
    <path id="Tracé_853" data-name="Tracé 853" d="M373.04,109.762l2.348-2.348,1.342,1.342-2.348,2.348Z" transform="translate(-175.644 0)" fill="#398a98"/>
    <path id="Tracé_854" data-name="Tracé 854" d="M407.66,138.609l.939-.939,1.342,1.342-.939.939Z" transform="translate(-206.51 -26.976)" fill="#398a98"/>
    <path id="Tracé_855" data-name="Tracé 855" d="M176.04,227.187l1.342-1.342,2.348,2.348-1.342,1.342Z" transform="translate(0 -105.592)" fill="#398a98"/>
    <path id="Tracé_856" data-name="Tracé 856" d="M206.29,205.557l1.342-1.342.939.939-1.342,1.342Z" transform="translate(-26.971 -86.307)" fill="#398a98"/>
    <path id="Tracé_857" data-name="Tracé 857" d="M492.04,305.017l1.342-1.342,2.348,2.348-1.342,1.342Z" transform="translate(-281.743 -174.985)" fill="#398a98"/>
    <path id="Tracé_858" data-name="Tracé 858" d="M474.16,340.267l1.342-1.342.939.939-1.342,1.342Z" transform="translate(-265.801 -206.413)" fill="#398a98"/>
    <path id="Tracé_859" data-name="Tracé 859" d="M234.077,153.195l1.707,1.707,1.328-1.328-2.277-2.277H229.9v-8.917l.759-.759-1.328-1.328-1.328,1.328v2.087h-1.9v-2.277l1.707-1.707-1.328-1.328-2.277,2.277v3.035h-1.9v-4.174l1.707-1.707-1.328-1.328-2.277,2.277v4.933H211.5l-.759-.759-1.328,1.328,1.328,1.328h2.087v1.9h-2.277l-1.707-1.707-1.328,1.328,2.277,2.277h3.035v1.9h-4.174l-1.707-1.707-1.328,1.328,2.277,2.277h4.933v8.632l-.759.759,1.328,1.328,1.328-1.328v-1.8h1.9v1.992l-1.707,1.707,1.328,1.328,2.277-2.277v-2.751h1.9v3.889l-1.707,1.707,1.328,1.328,2.277-2.277v-4.648h8.917l.759.759,1.328-1.328-1.328-1.328H229.9v-1.9h2.277l1.707,1.707,1.328-1.328-2.277-2.277H229.9v-1.9Zm-5.976,5.786h-13.28V145.7H228.1Z" transform="translate(-26.373 -25.933)" fill="#398a98"/>
    <path id="Tracé_860" data-name="Tracé 860" d="M295.72,422.652l2.348-2.348,1.342,1.342-2.348,2.348Z" transform="translate(-106.706 -278.97)" fill="#398a98"/>
    <path id="Tracé_861" data-name="Tracé 861" d="M274.09,403.989l.939-.939,1.342,1.342-.939.939Z" transform="translate(-87.421 -263.586)" fill="#398a98"/>
    <path id="Tracé_862" data-name="Tracé 862" d="M442.1,209.571a2.846,2.846,0,1,1,2.846-2.846A2.854,2.854,0,0,1,442.1,209.571Zm0-3.794a.949.949,0,1,0,.949.949A.951.951,0,0,0,442.1,205.777Z" transform="translate(-234.676 -86.008)" fill="#398a98"/>
    <path id="Tracé_863" data-name="Tracé 863" d="M372.1,375.811a2.846,2.846,0,1,1,2.846-2.846A2.854,2.854,0,0,1,372.1,375.811Zm0-3.794a.949.949,0,1,0,.949.949A.951.951,0,0,0,372.1,372.017Z" transform="translate(-172.264 -234.226)" fill="#398a98"/>
    <path id="Tracé_864" data-name="Tracé 864" d="M275.846,148.311a2.846,2.846,0,1,1,2.846-2.846A2.854,2.854,0,0,1,275.846,148.311Zm0-3.794a.949.949,0,1,0,.949.949A.951.951,0,0,0,275.846,144.517Z" transform="translate(-86.449 -31.389)" fill="#398a98"/>
    <path id="Tracé_865" data-name="Tracé 865" d="M214.6,314.571a2.846,2.846,0,1,1,2.846-2.846A2.854,2.854,0,0,1,214.6,314.571Zm0-3.794a.949.949,0,1,0,.949.949A.951.951,0,0,0,214.6,310.777Z" transform="translate(-31.839 -179.625)" fill="#398a98"/>
  </g>
</svg>
