<svg xmlns="http://www.w3.org/2000/svg" width="36.607" height="23.695" viewBox="0 0 36.607 23.695">
  <g id="picto_wb_is_better" transform="translate(0.258 -68.699)">
    <path id="Tracé_866" data-name="Tracé 866" d="M229.62,298.792a4.638,4.638,0,0,1,1.543,1.771,4.423,4.423,0,0,1,.628,2.285v6.4a.756.756,0,0,1-.743.743H218.937a.756.756,0,0,1-.743-.743v-6.4a4.791,4.791,0,0,1,.628-2.342,4.467,4.467,0,0,1,1.543-1.714c.4-.286.686-.114.971.114a6.118,6.118,0,0,0,7.427-.114.778.778,0,0,1,.857,0Zm.286,2.4a3.732,3.732,0,0,0-.743-.914,7.548,7.548,0,0,1-8.341,0,3.728,3.728,0,0,0-.743.914,3.236,3.236,0,0,0-.4,1.657v5.713h10.626v-5.713a3.235,3.235,0,0,0-.4-1.657Z" transform="translate(-206.947 -217.846)" fill="#398a98" stroke="#398a98" stroke-width="0.5"/>
    <path id="Tracé_867" data-name="Tracé 867" d="M260.711,115.46a4.856,4.856,0,1,1-4.856,4.856A4.852,4.852,0,0,1,260.711,115.46Zm0,1.485a3.371,3.371,0,1,0,3.371,3.371A3.341,3.341,0,0,0,260.711,116.945Z" transform="translate(-242.665 -44.112)" fill="#398a98" stroke="#398a98" stroke-width="0.5"/>
    <path id="Tracé_868" data-name="Tracé 868" d="M459.5,253.395a.728.728,0,1,1-1.086-.971,6.116,6.116,0,0,1,.914-.8c.343-.229.629-.114.971.114a5.863,5.863,0,0,0,3.6,1.257,6.053,6.053,0,0,0,3.771-1.314.7.7,0,0,1,.914,0,4.88,4.88,0,0,1,2.114,4v6.456a.756.756,0,0,1-.743.743h-8.627a.745.745,0,0,1,0-1.485h7.942V255.68a3.461,3.461,0,0,0-1.143-2.514,7.643,7.643,0,0,1-8.4,0l-.228.229Z" transform="translate(-434.595 -173.134)" fill="#398a98" stroke="#398a98" stroke-width="0.5"/>
    <path id="Tracé_869" data-name="Tracé 869" d="M479.96,68.949a4.857,4.857,0,1,1-4.8,4.856A4.852,4.852,0,0,1,479.96,68.949Zm0,1.428a3.427,3.427,0,0,0-3.371,3.428,3.4,3.4,0,0,0,6.8,0A3.438,3.438,0,0,0,479.96,70.377Z" transform="translate(-450.659)" fill="#398a98" stroke="#398a98" stroke-width="0.5"/>
    <path id="Tracé_870" data-name="Tracé 870" d="M9.362,261.4a.745.745,0,0,1,0,1.485H.735a.72.72,0,0,1-.743-.743v-6.456a4.892,4.892,0,0,1,2.171-4.056c.343-.229.628-.114.971.114a5.925,5.925,0,0,0,7.37-.057.62.62,0,0,1,.857,0,5.772,5.772,0,0,1,.914.743.728.728,0,0,1-1.086.971l-.228-.228a7.759,7.759,0,0,1-4.171,1.257,7.8,7.8,0,0,1-4.228-1.257,3.461,3.461,0,0,0-1.143,2.514V261.4H9.362Z" transform="translate(0 -173.137)" fill="#398a98" stroke="#398a98" stroke-width="0.5"/>
    <path id="Tracé_871" data-name="Tracé 871" d="M42.511,68.949a4.856,4.856,0,1,1-4.856,4.856A4.84,4.84,0,0,1,42.511,68.949Zm0,1.428a3.438,3.438,0,0,0-3.428,3.428,3.4,3.4,0,0,0,6.8,0A3.427,3.427,0,0,0,42.511,70.377Z" transform="translate(-35.72)" fill="#398a98" stroke="#398a98" stroke-width="0.5"/>
  </g>
</svg>
