<svg xmlns="http://www.w3.org/2000/svg" width="35.009" height="27.781" viewBox="0 0 35.009 27.781">
  <g id="picto_study" transform="translate(-114.539 -94.255)">
    <path id="Tracé_846" data-name="Tracé 846" d="M382.979,346.815a.82.82,0,0,1-.815-1.424,10.869,10.869,0,0,1,11.258-.005.817.817,0,0,1-.783,1.435,9.221,9.221,0,0,0-9.66-.005Z" transform="translate(-247.378 -230.957)" fill="#398a98" stroke="#398a98" stroke-width="0.5"/>
    <path id="Tracé_847" data-name="Tracé 847" d="M382.979,266.785a.82.82,0,0,1-.815-1.424,10.869,10.869,0,0,1,11.258-.005.82.82,0,0,1-.783,1.44,9.21,9.21,0,0,0-9.66-.011Z" transform="translate(-247.378 -156.798)" fill="#398a98" stroke="#398a98" stroke-width="0.5"/>
    <path id="Tracé_848" data-name="Tracé 848" d="M382.979,186.767a.82.82,0,0,1-.815-1.424,10.857,10.857,0,0,1,11.258-.011.82.82,0,0,1-.783,1.44,9.222,9.222,0,0,0-9.66-.005Z" transform="translate(-247.378 -82.645)" fill="#398a98" stroke="#398a98" stroke-width="0.5"/>
    <path id="Tracé_849" data-name="Tracé 849" d="M155.9,346.815a.82.82,0,0,1-.815-1.424,10.86,10.86,0,0,1,11.253-.005.817.817,0,0,1-.783,1.435,9.212,9.212,0,0,0-9.655-.005Z" transform="translate(-36.951 -230.957)" fill="#398a98" stroke="#398a98" stroke-width="0.5"/>
    <path id="Tracé_850" data-name="Tracé 850" d="M155.9,266.785a.82.82,0,0,1-.815-1.424,10.86,10.86,0,0,1,11.253-.005.82.82,0,0,1-.783,1.44,9.2,9.2,0,0,0-9.655-.011Z" transform="translate(-36.951 -156.798)" fill="#398a98" stroke="#398a98" stroke-width="0.5"/>
    <path id="Tracé_851" data-name="Tracé 851" d="M155.9,186.767a.82.82,0,0,1-.815-1.424,10.848,10.848,0,0,1,11.253-.011.82.82,0,0,1-.783,1.44,9.213,9.213,0,0,0-9.655-.005Z" transform="translate(-36.951 -82.645)" fill="#398a98" stroke="#398a98" stroke-width="0.5"/>
    <path id="Tracé_852" data-name="Tracé 852" d="M132.864,119.642c4.951-2.26,9.944-2.507,14.79-.074V99.186c-5.009-3.206-9.844-2.885-14.79.021Zm-1.64-20.493c-4.961-3.706-9.975-4.089-14.795-.026v20.524c4.935-2.234,9.907-2.5,14.795-.11Zm.557,22.542a.871.871,0,0,1-.247-.137,14.614,14.614,0,0,0-7.563-2.06c-4.741.052-7.653,2.286-8.362,2.286a.825.825,0,0,1-.82-.825V98.744a.821.821,0,0,1,.279-.615c5.435-4.783,11.352-4.567,17.029-.373a16.739,16.739,0,0,1,8-2.491,14.9,14.9,0,0,1,8.783,2.759.823.823,0,0,1,.42.72v22.211a.822.822,0,0,1-1.24.7c-5.14-3.08-10.286-2.728-15.594,0a.836.836,0,0,1-.683.032Z" fill="#398a98" stroke="#398a98" stroke-width="0.5"/>
  </g>
</svg>
